<?xml version="1.0" encoding="UTF-8" standalone="no"?>
<!-- Created with Inkscape (http://www.inkscape.org/) -->

<svg
   xmlns:dc="http://purl.org/dc/elements/1.1/"
   xmlns:cc="http://creativecommons.org/ns#"
   xmlns:rdf="http://www.w3.org/1999/02/22-rdf-syntax-ns#"
   xmlns:svg="http://www.w3.org/2000/svg"
   xmlns="http://www.w3.org/2000/svg"
   xmlns:sodipodi="http://sodipodi.sourceforge.net/DTD/sodipodi-0.dtd"
   xmlns:inkscape="http://www.inkscape.org/namespaces/inkscape"
   width="20.129999"
   height="7"
   id="svg3076"
   version="1.1"
   inkscape:version="0.48.4 r9939"
   sodipodi:docname="treeStepDelete.svg">
  <defs
     id="defs3078" />
  <sodipodi:namedview
     id="base"
     pagecolor="#ffffff"
     bordercolor="#666666"
     borderopacity="1.0"
     inkscape:pageopacity="0.0"
     inkscape:pageshadow="2"
     inkscape:zoom="22.627417"
     inkscape:cx="11.505345"
     inkscape:cy="13.26537"
     inkscape:document-units="px"
     inkscape:current-layer="layer1"
     showgrid="true"
     inkscape:snap-center="true"
     inkscape:object-nodes="false"
     inkscape:snap-nodes="true"
     inkscape:window-width="1114"
     inkscape:window-height="1042"
     inkscape:window-x="716"
     inkscape:window-y="0"
     inkscape:window-maximized="0"
     inkscape:snap-smooth-nodes="false"
     inkscape:snap-global="true"
     fit-margin-top="1"
     fit-margin-left="1"
     fit-margin-bottom="1"
     fit-margin-right="1">
    <inkscape:grid
       type="xygrid"
       id="grid3084"
       empspacing="5"
       visible="true"
       enabled="true"
       snapvisiblegridlinesonly="true"
       originx="-240.85127px"
       originy="-617.3563px" />
  </sodipodi:namedview>
  <metadata
     id="metadata3081">
    <rdf:RDF>
      <cc:Work
         rdf:about="">
        <dc:format>image/svg+xml</dc:format>
        <dc:type
           rdf:resource="http://purl.org/dc/dcmitype/StillImage" />
        <dc:title></dc:title>
      </cc:Work>
    </rdf:RDF>
  </metadata>
  <g
     inkscape:label="Calque 1"
     inkscape:groupmode="layer"
     id="layer1"
     transform="translate(-240.85127,-428.00588)">
    <path
       sodipodi:type="arc"
       style="fill:none;stroke:#ff0000;stroke-width:0.05;stroke-miterlimit:4;stroke-opacity:1;stroke-dasharray:none"
       id="path5534-7-5-1-1-8"
       sodipodi:cx="106.11021"
       sodipodi:cy="433.66583"
       sodipodi:rx="0.24306795"
       sodipodi:ry="0.24306795"
       d="m 106.35327,433.66583 c 0,0.13425 -0.10882,0.24307 -0.24306,0.24307 -0.13425,0 -0.24307,-0.10882 -0.24307,-0.24307 0,-0.13424 0.10882,-0.24307 0.24307,-0.24307 0.13424,0 0.24306,0.10883 0.24306,0.24307 z"
       transform="matrix(0.79546284,0,0,0.79546284,162.59326,84.397127)" />
    <path
       style="fill:none;stroke:#ff0000;stroke-width:0.1;stroke-linecap:butt;stroke-linejoin:miter;stroke-miterlimit:4;stroke-opacity:1;stroke-dasharray:none"
       d="m 246.87846,429.50029 -0.87847,0.86189"
       id="path4883-5-1-1-1-0-6-4-8-1-6"
       inkscape:connector-curvature="0"
       sodipodi:nodetypes="cc" />
    <rect
       style="fill:#ff0000;fill-opacity:1;stroke:none"
       id="rect5592-8"
       width="0.37565047"
       height="0.37565047"
       x="245.81219"
       y="430.17435" />
    <path
       sodipodi:type="arc"
       style="fill:none;stroke:#ff0000;stroke-width:0.05;stroke-miterlimit:4;stroke-opacity:1;stroke-dasharray:none"
       id="path5534-7-5-1-1-7"
       sodipodi:cx="106.11021"
       sodipodi:cy="433.66583"
       sodipodi:rx="0.24306795"
       sodipodi:ry="0.24306795"
       d="m 106.35327,433.66583 c 0,0.13425 -0.10882,0.24307 -0.24306,0.24307 -0.13425,0 -0.24307,-0.10882 -0.24307,-0.24307 0,-0.13424 0.10882,-0.24307 0.24307,-0.24307 0.13424,0 0.24306,0.10883 0.24306,0.24307 z"
       transform="matrix(0.79546284,0,0,0.79546284,159.59326,87.397127)" />
    <path
       style="fill:none;stroke:#ff0000;stroke-width:0.1;stroke-linecap:butt;stroke-linejoin:miter;stroke-miterlimit:4;stroke-opacity:1;stroke-dasharray:none"
       d="m 245.99999,430.36218 -0.86188,0.86742"
       id="path4883-5-1-1-1-0-6-4-8-1-6-1"
       inkscape:connector-curvature="0"
       sodipodi:nodetypes="cc" />
    <path
       style="fill:none;stroke:#ff0000;stroke-width:0.1;stroke-linecap:butt;stroke-linejoin:miter;stroke-miterlimit:4;stroke-opacity:1;stroke-dasharray:none"
       d="m 244.86188,431.50029 -0.72931,0.71826"
       id="path4883-5-1-1-1-0-6-4-8-1-6-8"
       inkscape:connector-curvature="0"
       sodipodi:nodetypes="cc" />
    <path
       sodipodi:type="arc"
       style="fill:none;stroke:#ff0000;stroke-width:0.05;stroke-miterlimit:4;stroke-opacity:1;stroke-dasharray:none"
       id="path5534-7-5-1-1-5-7"
       sodipodi:cx="106.11021"
       sodipodi:cy="433.66583"
       sodipodi:rx="0.24306795"
       sodipodi:ry="0.24306795"
       d="m 106.35327,433.66583 c 0,0.13425 -0.10882,0.24307 -0.24306,0.24307 -0.13425,0 -0.24307,-0.10882 -0.24307,-0.24307 0,-0.13424 0.10882,-0.24307 0.24307,-0.24307 0.13424,0 0.24306,0.10883 0.24306,0.24307 z"
       transform="matrix(0.79546284,0,0,0.79546284,162.59326,86.397127)" />
    <path
       style="fill:none;stroke:#ff0000;stroke-width:0.1;stroke-linecap:butt;stroke-linejoin:miter;stroke-miterlimit:4;stroke-opacity:1;stroke-dasharray:none"
       d="m 245.99999,430.36218 0.85637,0.87847"
       id="path4883-5-1-1-1-0-6-4-87"
       inkscape:connector-curvature="0"
       sodipodi:nodetypes="cc" />
    <path
       sodipodi:type="arc"
       style="fill:none;stroke:#ff0000;stroke-width:0.05;stroke-miterlimit:4;stroke-opacity:1;stroke-dasharray:none"
       id="path5534-7-5-1-1-7-2"
       sodipodi:cx="106.11021"
       sodipodi:cy="433.66583"
       sodipodi:rx="0.24306795"
       sodipodi:ry="0.24306795"
       d="m 106.35327,433.66583 c 0,0.13425 -0.10882,0.24307 -0.24306,0.24307 -0.13425,0 -0.24307,-0.10882 -0.24307,-0.24307 0,-0.13424 0.10882,-0.24307 0.24307,-0.24307 0.13424,0 0.24306,0.10883 0.24306,0.24307 z"
       transform="matrix(0.79546284,0,0,0.79546284,158.59326,88.397127)" />
    <path
       sodipodi:type="arc"
       style="fill:#ff0000;fill-opacity:1;stroke:none"
       id="path5534-3"
       sodipodi:cx="106.11021"
       sodipodi:cy="433.66583"
       sodipodi:rx="0.24306795"
       sodipodi:ry="0.24306795"
       d="m 106.35327,433.66583 c 0,0.13425 -0.10882,0.24307 -0.24306,0.24307 -0.13425,0 -0.24307,-0.10882 -0.24307,-0.24307 0,-0.13424 0.10882,-0.24307 0.24307,-0.24307 0.13424,0 0.24306,0.10883 0.24306,0.24307 z"
       transform="translate(135.88979,0.69634748)" />
    <path
       style="fill:none;stroke:#ff0000;stroke-width:0.1;stroke-linecap:butt;stroke-linejoin:miter;stroke-miterlimit:4;stroke-opacity:1;stroke-dasharray:none"
       d="m 243.86188,432.50028 -0.72931,0.71826"
       id="path4883-5-1-1-1-0-6-4-8-1-6-8-4"
       inkscape:connector-curvature="0"
       sodipodi:nodetypes="cc" />
    <path
       style="fill:none;stroke:#ff0000;stroke-width:0.1;stroke-linecap:butt;stroke-linejoin:miter;stroke-miterlimit:4;stroke-opacity:1;stroke-dasharray:none"
       d="m 242.85636,433.50028 -0.85637,0.86189"
       id="path4883-5-1-1-1-0-6-4-8-1-6-9"
       inkscape:connector-curvature="0"
       sodipodi:nodetypes="cc" />
    <path
       style="fill:none;stroke:#ff0000;stroke-width:0.1;stroke-linecap:butt;stroke-linejoin:miter;stroke-miterlimit:4;stroke-opacity:1;stroke-dasharray:0.2, 0.1;stroke-dashoffset:0"
       d="m 247.2141,431.55549 0.48137,0.5165"
       id="path4883-5-1-1-1-0-6-4-51-2-7-5-4"
       inkscape:connector-curvature="0"
       sodipodi:nodetypes="cc" />
    <path
       style="fill:none;stroke:#ff0000;stroke-width:0.1;stroke-linecap:butt;stroke-linejoin:miter;stroke-miterlimit:4;stroke-opacity:1;stroke-dasharray:0.2, 0.1;stroke-dashoffset:0"
       d="m 247.79687,428.55749 -0.61446,0.61446"
       id="path4883-5-1-1-1-0-6-4-8-6-4"
       inkscape:connector-curvature="0"
       sodipodi:nodetypes="cc" />
    <path
       sodipodi:type="arc"
       style="fill:#ffff00;fill-opacity:1;fill-rule:nonzero;stroke:#ff0000;stroke-width:0.05;stroke-miterlimit:4;stroke-opacity:1;stroke-dasharray:none"
       id="path5534-7-5-1-7-4"
       sodipodi:cx="106.11021"
       sodipodi:cy="433.66583"
       sodipodi:rx="0.24306795"
       sodipodi:ry="0.24306795"
       d="m 106.35327,433.66583 c 0,0.13425 -0.10882,0.24307 -0.24306,0.24307 -0.13425,0 -0.24307,-0.10882 -0.24307,-0.24307 0,-0.13424 0.10882,-0.24307 0.24307,-0.24307 0.13424,0 0.24306,0.10883 0.24306,0.24307 z"
       transform="matrix(1.3107249,0,0,1.3107249,105.9187,-137.05443)" />
    <path
       sodipodi:type="arc"
       style="fill:none;stroke:#ff0000;stroke-width:0.05;stroke-miterlimit:4;stroke-opacity:1;stroke-dasharray:none"
       id="path5534-7-5-1-1-8-7"
       sodipodi:cx="106.11021"
       sodipodi:cy="433.66583"
       sodipodi:rx="0.24306795"
       sodipodi:ry="0.24306795"
       d="m 106.35327,433.66583 c 0,0.13425 -0.10882,0.24307 -0.24306,0.24307 -0.13425,0 -0.24307,-0.10882 -0.24307,-0.24307 0,-0.13424 0.10882,-0.24307 0.24307,-0.24307 0.13424,0 0.24306,0.10883 0.24306,0.24307 z"
       transform="matrix(0.79546284,0,0,0.79546284,168.59326,84.397127)" />
    <path
       style="fill:none;stroke:#ff0000;stroke-width:0.1;stroke-linecap:butt;stroke-linejoin:miter;stroke-miterlimit:4;stroke-opacity:1;stroke-dasharray:none"
       d="m 252.87846,429.50029 -0.87847,0.86189"
       id="path4883-5-1-1-1-0-6-4-8-1-6-6"
       inkscape:connector-curvature="0"
       sodipodi:nodetypes="cc" />
    <rect
       style="fill:#ff0000;fill-opacity:1;stroke:none"
       id="rect5592-8-1"
       width="0.37565047"
       height="0.37565047"
       x="251.81219"
       y="430.17435" />
    <path
       sodipodi:type="arc"
       style="fill:none;stroke:#ff0000;stroke-width:0.05;stroke-miterlimit:4;stroke-opacity:1;stroke-dasharray:none"
       id="path5534-7-5-1-1-7-4"
       sodipodi:cx="106.11021"
       sodipodi:cy="433.66583"
       sodipodi:rx="0.24306795"
       sodipodi:ry="0.24306795"
       d="m 106.35327,433.66583 c 0,0.13425 -0.10882,0.24307 -0.24306,0.24307 -0.13425,0 -0.24307,-0.10882 -0.24307,-0.24307 0,-0.13424 0.10882,-0.24307 0.24307,-0.24307 0.13424,0 0.24306,0.10883 0.24306,0.24307 z"
       transform="matrix(0.79546284,0,0,0.79546284,165.59326,87.397127)" />
    <path
       style="fill:none;stroke:#ff0000;stroke-width:0.1;stroke-linecap:butt;stroke-linejoin:miter;stroke-miterlimit:4;stroke-opacity:1;stroke-dasharray:none"
       d="m 251.99999,430.36218 -0.86188,0.86742"
       id="path4883-5-1-1-1-0-6-4-8-1-6-1-2"
       inkscape:connector-curvature="0"
       sodipodi:nodetypes="cc" />
    <path
       style="fill:none;stroke:#ff0000;stroke-width:0.1;stroke-linecap:butt;stroke-linejoin:miter;stroke-miterlimit:4;stroke-opacity:1;stroke-dasharray:none"
       d="m 250.86188,431.50029 -0.72931,0.71826"
       id="path4883-5-1-1-1-0-6-4-8-1-6-8-3"
       inkscape:connector-curvature="0"
       sodipodi:nodetypes="cc" />
    <path
       sodipodi:type="arc"
       style="fill:none;stroke:#ff0000;stroke-width:0.05;stroke-miterlimit:4;stroke-opacity:1;stroke-dasharray:none"
       id="path5534-7-5-1-1-5-7-2"
       sodipodi:cx="106.11021"
       sodipodi:cy="433.66583"
       sodipodi:rx="0.24306795"
       sodipodi:ry="0.24306795"
       d="m 106.35327,433.66583 c 0,0.13425 -0.10882,0.24307 -0.24306,0.24307 -0.13425,0 -0.24307,-0.10882 -0.24307,-0.24307 0,-0.13424 0.10882,-0.24307 0.24307,-0.24307 0.13424,0 0.24306,0.10883 0.24306,0.24307 z"
       transform="matrix(0.79546284,0,0,0.79546284,168.59326,86.397127)" />
    <path
       style="fill:none;stroke:#ff0000;stroke-width:0.1;stroke-linecap:butt;stroke-linejoin:miter;stroke-miterlimit:4;stroke-opacity:1;stroke-dasharray:none"
       d="m 251.99999,430.36218 0.85637,0.87847"
       id="path4883-5-1-1-1-0-6-4-87-2"
       inkscape:connector-curvature="0"
       sodipodi:nodetypes="cc" />
    <path
       sodipodi:type="arc"
       style="fill:#ff0000;fill-opacity:1;stroke:none"
       id="path5534-3-6"
       sodipodi:cx="106.11021"
       sodipodi:cy="433.66583"
       sodipodi:rx="0.24306795"
       sodipodi:ry="0.24306795"
       d="m 106.35327,433.66583 c 0,0.13425 -0.10882,0.24307 -0.24306,0.24307 -0.13425,0 -0.24307,-0.10882 -0.24307,-0.24307 0,-0.13424 0.10882,-0.24307 0.24307,-0.24307 0.13424,0 0.24306,0.10883 0.24306,0.24307 z"
       transform="translate(142.88979,-0.30365252)" />
    <path
       style="fill:none;stroke:#ff0000;stroke-width:0.1;stroke-linecap:butt;stroke-linejoin:miter;stroke-miterlimit:4;stroke-opacity:1;stroke-dasharray:none"
       d="m 249.86188,432.50028 -0.72931,0.71826"
       id="path4883-5-1-1-1-0-6-4-8-1-6-8-4-8"
       inkscape:connector-curvature="0"
       sodipodi:nodetypes="cc" />
    <path
       style="fill:none;stroke:#ff0000;stroke-width:0.1;stroke-linecap:butt;stroke-linejoin:miter;stroke-miterlimit:4;stroke-opacity:1;stroke-dasharray:0.2, 0.1;stroke-dashoffset:0"
       d="m 253.2141,431.55549 0.48137,0.5165"
       id="path4883-5-1-1-1-0-6-4-51-2-7-5-4-7"
       inkscape:connector-curvature="0"
       sodipodi:nodetypes="cc" />
    <path
       style="fill:none;stroke:#ff0000;stroke-width:0.1;stroke-linecap:butt;stroke-linejoin:miter;stroke-miterlimit:4;stroke-opacity:1;stroke-dasharray:0.2, 0.1;stroke-dashoffset:0"
       d="m 253.79687,428.55749 -0.61446,0.61446"
       id="path4883-5-1-1-1-0-6-4-8-6-4-6"
       inkscape:connector-curvature="0"
       sodipodi:nodetypes="cc" />
    <path
       sodipodi:type="arc"
       style="fill:#ffff00;fill-opacity:1;fill-rule:nonzero;stroke:#ff0000;stroke-width:0.05;stroke-miterlimit:4;stroke-opacity:1;stroke-dasharray:none"
       id="path5534-7-5-1-7-4-1"
       sodipodi:cx="106.11021"
       sodipodi:cy="433.66583"
       sodipodi:rx="0.24306795"
       sodipodi:ry="0.24306795"
       d="m 106.35327,433.66583 c 0,0.13425 -0.10882,0.24307 -0.24306,0.24307 -0.13425,0 -0.24307,-0.10882 -0.24307,-0.24307 0,-0.13424 0.10882,-0.24307 0.24307,-0.24307 0.13424,0 0.24306,0.10883 0.24306,0.24307 z"
       transform="matrix(1.3107249,0,0,1.3107249,111.9187,-137.05443)" />
    <path
       style="fill:none;stroke:none"
       d="m 249,431.36218 5,0"
       id="path4496"
       inkscape:connector-curvature="0" />
    <path
       sodipodi:type="arc"
       style="fill:none;stroke:#ff0000;stroke-width:0.05;stroke-miterlimit:4;stroke-opacity:1;stroke-dasharray:none"
       id="path5534-7-5-1-1-8-7-8"
       sodipodi:cx="106.11021"
       sodipodi:cy="433.66583"
       sodipodi:rx="0.24306795"
       sodipodi:ry="0.24306795"
       d="m 106.35327,433.66583 c 0,0.13425 -0.10882,0.24307 -0.24306,0.24307 -0.13425,0 -0.24307,-0.10882 -0.24307,-0.24307 0,-0.13424 0.10882,-0.24307 0.24307,-0.24307 0.13424,0 0.24306,0.10883 0.24306,0.24307 z"
       transform="matrix(0.79546284,0,0,0.79546284,174.59326,84.397127)" />
    <path
       style="fill:none;stroke:#ff0000;stroke-width:0.1;stroke-linecap:butt;stroke-linejoin:miter;stroke-miterlimit:4;stroke-opacity:1;stroke-dasharray:none"
       d="m 258.87846,429.50029 -0.87847,0.86189"
       id="path4883-5-1-1-1-0-6-4-8-1-6-6-9"
       inkscape:connector-curvature="0"
       sodipodi:nodetypes="cc" />
    <rect
       style="fill:#ff0000;fill-opacity:1;stroke:none"
       id="rect5592-8-1-2"
       width="0.37565047"
       height="0.37565047"
       x="257.81219"
       y="430.17435" />
    <path
       style="fill:none;stroke:#ff0000;stroke-width:0.1;stroke-linecap:butt;stroke-linejoin:miter;stroke-miterlimit:4;stroke-opacity:1;stroke-dasharray:none"
       d="m 257.99999,430.36218 -0.86188,0.86742"
       id="path4883-5-1-1-1-0-6-4-8-1-6-1-2-9"
       inkscape:connector-curvature="0"
       sodipodi:nodetypes="cc" />
    <path
       sodipodi:type="arc"
       style="fill:none;stroke:#ff0000;stroke-width:0.05;stroke-miterlimit:4;stroke-opacity:1;stroke-dasharray:none"
       id="path5534-7-5-1-1-5-7-2-4"
       sodipodi:cx="106.11021"
       sodipodi:cy="433.66583"
       sodipodi:rx="0.24306795"
       sodipodi:ry="0.24306795"
       d="m 106.35327,433.66583 c 0,0.13425 -0.10882,0.24307 -0.24306,0.24307 -0.13425,0 -0.24307,-0.10882 -0.24307,-0.24307 0,-0.13424 0.10882,-0.24307 0.24307,-0.24307 0.13424,0 0.24306,0.10883 0.24306,0.24307 z"
       transform="matrix(0.79546284,0,0,0.79546284,174.59326,86.397127)" />
    <path
       style="fill:none;stroke:#ff0000;stroke-width:0.1;stroke-linecap:butt;stroke-linejoin:miter;stroke-miterlimit:4;stroke-opacity:1;stroke-dasharray:none"
       d="m 257.99999,430.36218 0.85637,0.87847"
       id="path4883-5-1-1-1-0-6-4-87-2-3"
       inkscape:connector-curvature="0"
       sodipodi:nodetypes="cc" />
    <path
       style="fill:none;stroke:#ff0000;stroke-width:0.1;stroke-linecap:butt;stroke-linejoin:miter;stroke-miterlimit:4;stroke-opacity:1;stroke-dasharray:0.2, 0.1;stroke-dashoffset:0"
       d="m 259.2141,431.55549 0.48137,0.5165"
       id="path4883-5-1-1-1-0-6-4-51-2-7-5-4-7-3"
       inkscape:connector-curvature="0"
       sodipodi:nodetypes="cc" />
    <path
       style="fill:none;stroke:#ff0000;stroke-width:0.1;stroke-linecap:butt;stroke-linejoin:miter;stroke-miterlimit:4;stroke-opacity:1;stroke-dasharray:0.2, 0.1;stroke-dashoffset:0"
       d="m 259.79687,428.55749 -0.61446,0.61446"
       id="path4883-5-1-1-1-0-6-4-8-6-4-6-3"
       inkscape:connector-curvature="0"
       sodipodi:nodetypes="cc" />
    <path
       sodipodi:type="arc"
       style="fill:#ffff00;fill-opacity:1;fill-rule:nonzero;stroke:#ff0000;stroke-width:0.05;stroke-miterlimit:4;stroke-opacity:1;stroke-dasharray:none"
       id="path5534-7-5-1-7-4-1-4"
       sodipodi:cx="106.11021"
       sodipodi:cy="433.66583"
       sodipodi:rx="0.24306795"
       sodipodi:ry="0.24306795"
       d="m 106.35327,433.66583 c 0,0.13425 -0.10882,0.24307 -0.24306,0.24307 -0.13425,0 -0.24307,-0.10882 -0.24307,-0.24307 0,-0.13424 0.10882,-0.24307 0.24307,-0.24307 0.13424,0 0.24306,0.10883 0.24306,0.24307 z"
       transform="matrix(1.3107249,0,0,1.3107249,117.9187,-137.05443)" />
    <path
       style="fill:none;stroke:none"
       d="m 255,431.36218 5,0"
       id="path4496-1"
       inkscape:connector-curvature="0" />
    <path
       style="fill:#ff0000;fill-opacity:1;stroke:none"
       d="m 253.33145,430.09477 0.80225,0 0,-0.26742 0.53484,0.53483 -0.53484,0.53483 0,-0.26742 -0.80225,0 z"
       id="path4944-1-3"
       inkscape:connector-curvature="0"
       sodipodi:nodetypes="cccccccc" />
    <path
       style="fill:#ff0000;fill-opacity:1;stroke:none"
       d="m 248.33145,430.09477 0.80225,0 0,-0.26742 0.53484,0.53483 -0.53484,0.53483 0,-0.26742 -0.80225,0 z"
       id="path4944-1-3-8"
       inkscape:connector-curvature="0"
       sodipodi:nodetypes="cccccccc" />
    <path
       style="fill:#ff0000;fill-opacity:1;stroke:none"
       d="m 255.33146,430.09477 0.80225,0 0,-0.26742 0.53483,0.53483 -0.53483,0.53483 0,-0.26742 -0.80225,0 z"
       id="path4944-1-3-7"
       inkscape:connector-curvature="0"
       sodipodi:nodetypes="cccccccc" />
  </g>
</svg>
